<svg width="192" height="192" viewBox="0 0 192 192" fill="none" xmlns="http://www.w3.org/2000/svg">
<g clip-path="url(#clip0_18_2)">
<path d="M56.4078 132.226V150.308H45.042C42.5441 150.308 40.5769 149.616 39.1406 148.232L22.5292 132.768C21.6341 131.785 20.9992 130.943 20.6245 130.241C20.3123 129.459 20.1561 128.456 20.1561 127.232V42.1504H40.6706V123.472C40.6706 124.093 40.8267 124.505 41.139 124.705L48.9451 131.926C49.2574 132.126 49.6841 132.226 50.2253 132.226H56.4078ZM172.719 94.2886V150.308H152.173V98.0493C152.173 97.4276 152.017 96.9663 151.705 96.6654L143.836 89.6856C143.628 89.485 143.253 89.3847 142.712 89.3847H134.282C133.699 89.3847 133.303 89.485 133.095 89.6856L125.133 96.6654C124.821 96.9663 124.664 97.4276 124.664 98.0493V99.4032V150.308H104.15V98.0493C104.15 97.4276 103.983 96.9663 103.65 96.6654L95.7818 89.6856C95.5737 89.485 95.199 89.3847 94.6578 89.3847H86.1647C85.6235 89.3847 85.2488 89.485 85.0406 89.6856L77.0784 96.6654C76.7661 96.9663 76.61 97.4276 76.61 98.0493V150.308H56.0955V71.6643H76.61V78.2531L81.4498 73.7402C82.8861 72.3563 84.8533 71.6643 87.3512 71.6643H99.6849C102.12 71.6643 104.077 72.3563 105.555 73.7402L117.327 84.5409L129.504 73.7402C131.045 72.3563 133.012 71.6643 135.406 71.6643H147.802C150.196 71.6643 152.132 72.3563 153.61 73.7402L170.252 88.9033C171.147 89.6856 171.782 90.4778 172.157 91.2801C172.532 92.0623 172.719 93.0652 172.719 94.2886Z" fill="url(#paint0_linear_18_2)"/>
</g>
<defs>
<linearGradient id="paint0_linear_18_2" x1="63.0816" y1="37.9737" x2="114.618" y2="132.189" gradientUnits="userSpaceOnUse">
<stop stop-color="white"/>
<stop offset="1" stop-color="#8E8E8E"/>
</linearGradient>
<clipPath id="clip0_18_2">
<rect width="153" height="108.308" fill="white" transform="translate(20 42)"/>
</clipPath>
</defs>
</svg>
